<svg xmlns="http://www.w3.org/2000/svg" width="40" height="39.999" viewBox="0 0 40 39.999">
  <g id="Grupo_877" data-name="Grupo 877" transform="translate(-267.355 -46.085)">
    <rect id="Retângulo_193" data-name="Retângulo 193" width="40" height="39.999" transform="translate(267.355 46.085)" fill="none"/>
    <path id="Caminho_1427" data-name="Caminho 1427" d="M290.908,82.966a4.566,4.566,0,0,1-4.53-4.036l-.126-.018,0-.027c-3.325-.618-5.233-1.786-5.821-3.561a3.5,3.5,0,0,1,.912-3.438,6.934,6.934,0,0,0,1.341-2.539,7.5,7.5,0,0,0,.125-3.27,5.764,5.764,0,0,1,.52-3.949c1.159-2.007,3.663-3.14,7.443-3.368l.052,0,.051,0c3.889.223,6.433,1.365,7.564,3.391a.876.876,0,0,1-1.53.853c-.815-1.462-2.862-2.3-6.084-2.493-3.127.2-5.14,1.035-5.982,2.493a4.17,4.17,0,0,0-.3,2.853,9.217,9.217,0,0,1-.176,3.962,8.628,8.628,0,0,1-1.633,3.127c-.574.753-.862,1.174-.645,1.828.4,1.2,2.22,2.071,5.268,2.522l.866.128,0,.018.774.046c1.067.063,1.815.065,1.9.065.667-.011,1.315-.031,1.932-.058l.8-.035.859-.1c3.194-.342,4.963-1.065,5.258-2.154.171-.632-.156-1.1-.8-1.927l.463-.36h0l-.464.359a8.925,8.925,0,0,1-1.814-3.46.875.875,0,1,1,1.7-.429,7.2,7.2,0,0,0,1.5,2.818l.532.689-.016.013a3.213,3.213,0,0,1,.589,2.757c-.6,2.221-3.425,2.989-5.853,3.325V79l-.16.02A4.565,4.565,0,0,1,290.908,82.966Zm-2.754-4a2.809,2.809,0,0,0,5.5.021C292.862,79.457,288.869,79.469,288.154,78.966Z" transform="translate(-3.723 -3.652)" fill="#1a1818"/>
  </g>
</svg>
